<svg xmlns="http://www.w3.org/2000/svg" width="45" height="45" viewBox="0 0 45 45"><defs><style>.a{fill:none;}.b,.c{fill:#526063;}.d{fill:#fff;}.e,.f{stroke:none;}.f{fill:#526063;}</style></defs><g transform="translate(-179 -212)"><path class="a" d="M0,0H45V45H0Z" transform="translate(179 212)"/><g transform="translate(0.187 -2.84)"><g class="b" transform="translate(3245.5 209.834)"><path class="e" d="M-3038.535,43.892a3.971,3.971,0,0,1-1.625-.347l-13.374-5.954a4.005,4.005,0,0,1-2.027-5.281l8.377-18.816a4.007,4.007,0,0,1,3.657-2.373,3.97,3.97,0,0,1,1.625.347l13.374,5.954a3.974,3.974,0,0,1,2.107,2.22,3.974,3.974,0,0,1-.081,3.061l-8.377,18.816A4.006,4.006,0,0,1-3038.535,43.892Zm-4.719-31.112A3,3,0,0,0-3046,14.561l-7.971,17.9a2.978,2.978,0,0,0-.06,2.3,2.982,2.982,0,0,0,1.581,1.666l12.459,5.548a2.975,2.975,0,0,0,1.218.26,3.009,3.009,0,0,0,2.743-1.781l7.971-17.9a3,3,0,0,0-1.521-3.961l-12.459-5.548A2.98,2.98,0,0,0-3043.253,12.78Z"/><path class="f" d="M -3038.534912109375 43.89229202270508 C -3039.09619140625 43.89229202270508 -3039.642822265625 43.77565383911133 -3040.15966796875 43.54560089111328 L -3053.53369140625 37.59119415283203 C -3055.5478515625 36.69450378417969 -3056.45703125 34.32536315917969 -3055.560302734375 32.30999374389648 L -3047.18310546875 13.49370193481445 C -3046.540771484375 12.0518627166748 -3045.10546875 11.12021255493164 -3043.5263671875 11.12021255493164 C -3042.965087890625 11.12021255493164 -3042.418701171875 11.23685264587402 -3041.90185546875 11.46690273284912 L -3028.528076171875 17.42129135131836 C -3027.552001953125 17.85578155517578 -3026.8037109375 18.64433288574219 -3026.420654296875 19.64170265197754 C -3026.037841796875 20.63931274414063 -3026.06640625 21.72632217407227 -3026.501220703125 22.7025032043457 L -3034.87841796875 41.51881408691406 C -3035.520263671875 42.96063232421875 -3036.95556640625 43.89228057861328 -3038.534912109375 43.89229202270508 Z M -3043.25341796875 12.78037261962891 C -3044.4384765625 12.78047275543213 -3045.51513671875 13.47945213317871 -3045.99609375 14.56110191345215 L -3053.96728515625 32.46389389038086 C -3054.29345703125 33.19550323486328 -3054.314697265625 34.01055145263672 -3054.02734375 34.75890350341797 C -3053.73974609375 35.50722122192383 -3053.178466796875 36.09885406494141 -3052.4462890625 36.42480087280273 L -3039.98681640625 41.9724006652832 C -3039.599365234375 42.14500045776367 -3039.189453125 42.23251342773438 -3038.76904296875 42.23251342773438 C -3037.58447265625 42.23157119750977 -3036.507568359375 41.53244400024414 -3036.02587890625 40.45140075683594 L -3028.0546875 22.54860305786133 C -3027.38232421875 21.03740310668945 -3028.064453125 19.26055145263672 -3029.57568359375 18.58770179748535 L -3042.03515625 13.04010200500488 C -3042.4228515625 12.8677225112915 -3042.832763671875 12.78033256530762 -3043.25341796875 12.78037261962891 Z"/></g><rect class="c" width="22.639" height="28.597" rx="4" transform="translate(186 221.254)"/><rect class="d" width="10" height="2" rx="1" transform="translate(188.813 226.84)"/><rect class="d" width="12" height="2" rx="1" transform="translate(188.813 234.84)"/><rect class="d" width="14" height="2" rx="1" transform="translate(188.813 242.84)"/></g></g></svg>