<svg xmlns="http://www.w3.org/2000/svg" width="45" height="45" viewBox="0 0 45 45"><defs><style>.a{fill:none;}.b{fill:#526063;}</style></defs><g transform="translate(-179 -212)"><path class="a" d="M0,0H45V45H0Z" transform="translate(179 212)"/><g transform="translate(-133 120.717)"><path class="b" d="M12.255,3.116a2,2,0,0,1,3.49,0L26.333,22.023A2,2,0,0,1,24.588,25H3.412a2,2,0,0,1-1.745-2.977Z" transform="translate(325 100.283)"/><path class="b" d="M8.211,3.578a2,2,0,0,1,3.578,0l6.764,13.528A2,2,0,0,1,16.764,20H3.236a2,2,0,0,1-1.789-2.894Z" transform="translate(317 105.283)"/></g></g></svg>