<svg xmlns="http://www.w3.org/2000/svg" width="45" height="45" viewBox="0 0 45 45"><defs><style>.a{fill:none;}.b{fill:#526063;}</style></defs><g transform="translate(-179 -212)"><path class="a" d="M0,0H45V45H0Z" transform="translate(179 212)"/><path class="b" d="M29.5,9H4.5a4.5,4.5,0,0,1,0-9h25a4.5,4.5,0,0,1,0,9ZM5.465,2.571A1.88,1.88,0,0,0,3.643,4.5,1.879,1.879,0,0,0,5.465,6.428,1.879,1.879,0,0,0,7.286,4.5,1.88,1.88,0,0,0,5.465,2.571Z" transform="translate(184 220)"/><path class="b" d="M29.5,9H4.5a4.5,4.5,0,0,1,0-9h25a4.5,4.5,0,0,1,0,9ZM5.465,2.571A1.88,1.88,0,0,0,3.643,4.5,1.879,1.879,0,0,0,5.465,6.428,1.879,1.879,0,0,0,7.286,4.5,1.88,1.88,0,0,0,5.465,2.571Z" transform="translate(184 230)"/><path class="b" d="M29.5,9H4.5a4.5,4.5,0,0,1,0-9h25a4.5,4.5,0,0,1,0,9ZM5.465,2.571A1.88,1.88,0,0,0,3.643,4.5,1.879,1.879,0,0,0,5.465,6.428,1.879,1.879,0,0,0,7.286,4.5,1.88,1.88,0,0,0,5.465,2.571Z" transform="translate(184 240)"/></g></svg>