<svg xmlns="http://www.w3.org/2000/svg" xmlns:xlink="http://www.w3.org/1999/xlink" width="212.081" height="31.608" viewBox="0 0 212.081 31.608">
  <defs>
    <style>
      .cls-1 {
        fill: url(#linear-gradient);
      }

      .cls-2 {
        fill: url(#linear-gradient-2);
      }

      .cls-3 {
        fill: #787694;
        font-size: 27px;
        font-family: SourceHanSansCN-Bold, Source Han Sans CN;
        font-weight: 700;
      }
    </style>
    <linearGradient id="linear-gradient" x1="0.5" x2="0.5" y2="1" gradientUnits="objectBoundingBox">
      <stop offset="0" stop-color="#6ddbd0"/>
      <stop offset="1" stop-color="#7119b4"/>
    </linearGradient>
    <linearGradient id="linear-gradient-2" x1="0.5" x2="0.5" y2="1" gradientUnits="objectBoundingBox">
      <stop offset="0" stop-color="#ffa278"/>
      <stop offset="1" stop-color="#e956cb"/>
    </linearGradient>
  </defs>
  <g id="组_7" data-name="组 7" transform="translate(-607.46 -380.024)">
    <g id="logo" transform="translate(607.459 380.024)">
      <path id="路径_12" data-name="路径 12" class="cls-1" d="M133.77,102.684c-4.132-.9-6.9-3.388-9.263-6.79-2.058-2.965-3.541-6.34-5.819-9.144a15.9,15.9,0,0,0-22.915-1.476c-3.367,3.13-6.265,8.958-4.747,13.616,1.048,3.216,6.147,1.84,5.09-1.4-.631-1.937.438-4.539,1.476-6.2a11.173,11.173,0,0,1,4.742-4.173,10.767,10.767,0,0,1,11.771,2.418,19.8,19.8,0,0,1,2.948,4.41,55.592,55.592,0,0,0,3.412,5.35c3.021,4.18,6.742,7.363,11.9,8.483,3.312.719,4.727-4.368,1.4-5.09Z" transform="translate(-70.848 -81.095)"/>
      <path id="路径_13" data-name="路径 13" class="cls-2" d="M34.1,100.616c4.132.9,6.9,3.388,9.263,6.79,2.058,2.965,3.541,6.34,5.819,9.144a15.9,15.9,0,0,0,22.915,1.476c3.367-3.13,6.265-8.958,4.747-13.616-1.048-3.216-6.147-1.84-5.09,1.4.631,1.937-.438,4.539-1.476,6.2a11.173,11.173,0,0,1-4.742,4.173,10.767,10.767,0,0,1-11.771-2.418,19.8,19.8,0,0,1-2.948-4.41,55.594,55.594,0,0,0-3.412-5.35c-3.021-4.18-6.742-7.363-11.9-8.483-3.312-.719-4.727,4.368-1.4,5.09Z" transform="translate(-32.201 -90.597)"/>
    </g>
    <text id="文件共享台" class="cls-3" transform="translate(684.541 406.328)"><tspan x="0" y="0">文件共享台</tspan></text>
  </g>
</svg>
